<?xml version="1.0" encoding="UTF-8" standalone="no"?>
<svg
   width="45.00951mm"
   height="64.93029mm"
   viewBox="0 0 45.00951 64.93029"
   version="1.1"
   id="svg8"
   inkscape:version="1.1.1 (3bf5ae0d25, 2021-09-20)"
   sodipodi:docname="CharBorderBackground.svg"
   xmlns:inkscape="http://www.inkscape.org/namespaces/inkscape"
   xmlns:sodipodi="http://sodipodi.sourceforge.net/DTD/sodipodi-0.dtd"
   xmlns="http://www.w3.org/2000/svg"
   xmlns:svg="http://www.w3.org/2000/svg"
   xmlns:rdf="http://www.w3.org/1999/02/22-rdf-syntax-ns#"
   xmlns:cc="http://creativecommons.org/ns#"
   xmlns:dc="http://purl.org/dc/elements/1.1/">
  <defs
     id="defs2" />
  <sodipodi:namedview
     id="base"
     pagecolor="#ffffff"
     bordercolor="#666666"
     borderopacity="1.0"
     inkscape:pageopacity="0.0"
     inkscape:pageshadow="2"
     inkscape:zoom="1.979899"
     inkscape:cx="87.630733"
     inkscape:cy="160.36172"
     inkscape:document-units="mm"
     inkscape:current-layer="layer1"
     inkscape:document-rotation="0"
     showgrid="false"
     inkscape:snap-midpoints="true"
     inkscape:snap-intersection-paths="false"
     inkscape:object-paths="false"
     inkscape:object-nodes="true"
     inkscape:snap-center="false"
     inkscape:snap-object-midpoints="true"
     inkscape:window-width="1920"
     inkscape:window-height="1017"
     inkscape:window-x="1912"
     inkscape:window-y="-8"
     inkscape:window-maximized="1"
     fit-margin-top="0"
     fit-margin-left="0"
     fit-margin-right="0"
     fit-margin-bottom="0"
     inkscape:pagecheckerboard="0" />
  <metadata
     id="metadata5">
    <rdf:RDF>
      <cc:Work
         rdf:about="">
        <dc:format>image/svg+xml</dc:format>
        <dc:type
           rdf:resource="http://purl.org/dc/dcmitype/StillImage" />
      </cc:Work>
    </rdf:RDF>
  </metadata>
  <g
     inkscape:label="Layer 1"
     inkscape:groupmode="layer"
     id="layer1"
     transform="translate(-35.696725,-91.139043)">
    <path
       style="fill:#000000;stroke-width:0.357143"
       d="M 26.09375,1.6357422 C 24.576827,3.7319906 25.704858,6.5664861 25.089983,8.9920479 24.10975,17.5841 20.560773,27.116652 12.848772,32.253767 9.5620596,34.487859 5.635761,35.612125 1.8080357,36.278599 0.21478204,38.564424 1.4022175,41.654189 1.0374739,44.286411 1.1942581,72.0811 0.64615557,99.893564 1.7305299,127.67413 c 0.9399809,17.55064 3.9757484,35.30625 11.2857801,51.37076 0.776635,2.37724 3.509108,-0.54217 3.454114,0.19479 1.00946,6.81668 3.747355,13.45826 8.626351,18.42387 7.105052,7.66073 15.872096,13.79207 25.376857,18.0891 9.122318,3.22933 19.107811,2.90143 28.499247,1.34509 2.327225,-0.3376 0.1435,-3.99746 2.743082,-2.29166 2.731464,1.25068 5.718293,0.5273 8.36286,-0.56431 -1.052117,2.60468 2.189433,3.23811 4.098075,3.39146 10.642834,1.22898 22.147834,0.91957 31.520774,-4.90592 9.33162,-5.387 18.31475,-12.18633 24.08051,-21.44383 1.94962,-3.79659 3.43187,-7.92685 3.84417,-12.19796 1.08267,2.09307 3.86686,0.58389 4.09731,-1.38054 6.6143,-15.20285 9.50557,-31.79919 10.58595,-48.2647 1.0493,-24.94599 0.50405,-49.925901 0.65708,-74.886709 -0.15293,-5.777982 0.3087,-11.658457 -0.2304,-17.372036 -0.86621,-2.05975 -3.62742,-0.921681 -5.27735,-2.004359 -8.58031,-2.375325 -14.51091,-10.154257 -16.84919,-18.446568 -1.48242,-4.612648 -1.71749,-9.4898548 -2.15964,-14.1938648 -1.23684,-2.37789791 -4.5797,-0.9212309 -6.76754,-1.322318 -36.78571,0 -73.571427,0 -110.357141,0 -0.409226,0.140439 -0.818453,0.280878 -1.227679,0.421317 z"
       id="path314"
       transform="matrix(0.26458333,0,0,0.26458333,35.696725,91.139043)" />
    <path
       style="fill:#000000;stroke-width:0.357143"
       d="m 2.3897879,149.92397 c -3.19907033,1.32439 -1.95997629,5.31438 -2.26677544,7.99664 0.0279948,11.08482 -0.21131767,22.19325 0.36387368,33.26243 0.88105166,6.88523 5.95014886,12.58469 12.25167386,15.18764 7.360828,3.28819 15.495842,4.64141 23.263812,6.18722 3.064539,0.1083 4.180328,-4.34924 1.547851,-5.83287 -9.433666,-6.71692 -16.765968,-15.96492 -22.203543,-26.12096 -0.71672,-2.20201 -3.970726,-0.24062 -3.662807,-2.41699 -1.294559,-8.92415 -3.5527755,-17.71111 -5.6695269,-26.44546 -0.4836567,-1.51659 -2.1788998,-2.0713 -3.6245582,-1.81765 z"
       id="path392"
       transform="matrix(0.26458333,0,0,0.26458333,35.696725,91.139043)" />
    <path
       style="fill:#000000;stroke-width:0.357143"
       d="m 165.00628,150.35435 c -1.98009,2.83936 -1.83776,6.55725 -2.90096,9.79752 -1.47758,6.14904 -2.89393,12.32592 -3.72223,18.60162 -3.46525,-0.93655 -4.33898,3.35644 -5.76991,5.57443 -4.99656,9.12128 -12.27497,16.85929 -20.7326,22.86237 -2.50992,1.89552 -0.30081,6.18106 2.69601,5.33831 9.28543,-2.17712 19.35958,-3.15839 27.37375,-8.77581 4.45047,-3.26661 7.73801,-8.36066 7.72251,-14.00949 0.51669,-12.34733 0.13579,-24.71401 0.23019,-37.06891 -0.19148,-2.47872 -2.84951,-3.74633 -4.89676,-2.32004 z"
       id="path431"
       transform="matrix(0.26458333,0,0,0.26458333,35.696725,91.139043)" />
  </g>
</svg>
