
<svg
   version="1.1"
   xmlns="http://www.w3.org/2000/svg"
   xmlns:xlink="http://www.w3.org/1999/xlink"
   x="0px"
   y="0px"
   viewBox="0 0 845.737 1648.532"
   enable-background="new 0 0 845.737 1648.532"
   xml:space="preserve"
   pagecolor="#505050"
   bordercolor="#eeeeee"
   borderopacity="1">
	<path
		fill="#010101"
		d="M32.521,1008.923v180.618c17.013,84.521,33.793,169.12,122.354,246.65  c0,0,7.963,176.539,0,184.502c-8.002,8.04,512.682,0,512.682,0v-182.521c135.56-105.613,133.385-220.703,145.659-308.759v-7.846  V358.312c0-38.765-30.181-69.878-67.974-69.878c-37.716,0-67.974,31.113-67.974,69.878v411.73h-23.305V187.405  c0-38.687-30.258-69.878-67.974-69.878s-67.974,31.191-67.974,69.878v582.637H496.69V94.221  c0.039-38.765-30.297-69.955-67.936-69.955c-37.794,0-68.013,31.19-68.013,69.955v675.821h-25.248V187.405  c0-38.687-30.219-69.878-67.974-69.878c-37.716,0-67.974,31.191-67.974,69.878v582.637h-19.421V560.37  C149.4,474.101,95.098,454.175,32.523,457.437C32.521,457.438,32.521,1008.923,32.521,1008.923z"
		/>
</svg>
